<mxfile host="65bd71144e">
    <diagram id="E73KAtJa-JTTu3t9GZal" name="Page-1">
        <mxGraphModel dx="2171" dy="753" grid="1" gridSize="10" guides="1" tooltips="1" connect="1" arrows="1" fold="1" page="1" pageScale="1" pageWidth="850" pageHeight="1100" math="0" shadow="0">
            <root>
                <mxCell id="0"/>
                <mxCell id="1" parent="0"/>
                <mxCell id="129" value="" style="edgeStyle=orthogonalEdgeStyle;shape=link;html=1;entryX=0.5;entryY=0;entryDx=0;entryDy=0;" edge="1" parent="1" source="53" target="69">
                    <mxGeometry relative="1" as="geometry">
                        <mxPoint x="80" y="425" as="targetPoint"/>
                        <Array as="points">
                            <mxPoint x="360" y="610"/>
                            <mxPoint x="-911" y="610"/>
                        </Array>
                    </mxGeometry>
                </mxCell>
                <mxCell id="134" value="" style="edgeStyle=orthogonalEdgeStyle;shape=link;html=1;" edge="1" parent="1" source="53" target="133">
                    <mxGeometry relative="1" as="geometry">
                        <Array as="points">
                            <mxPoint x="360" y="610"/>
                            <mxPoint x="-631" y="610"/>
                        </Array>
                    </mxGeometry>
                </mxCell>
                <mxCell id="137" value="" style="edgeStyle=orthogonalEdgeStyle;shape=link;html=1;" edge="1" parent="1" source="53" target="136">
                    <mxGeometry relative="1" as="geometry">
                        <Array as="points">
                            <mxPoint x="360" y="610"/>
                            <mxPoint x="-351" y="610"/>
                        </Array>
                    </mxGeometry>
                </mxCell>
                <mxCell id="141" value="" style="edgeStyle=orthogonalEdgeStyle;shape=link;html=1;" edge="1" parent="1" source="53" target="140">
                    <mxGeometry relative="1" as="geometry">
                        <Array as="points">
                            <mxPoint x="360" y="610"/>
                            <mxPoint x="-71" y="610"/>
                        </Array>
                    </mxGeometry>
                </mxCell>
                <mxCell id="143" value="" style="edgeStyle=orthogonalEdgeStyle;shape=link;html=1;entryX=0.5;entryY=0;entryDx=0;entryDy=0;" edge="1" parent="1" source="53" target="102">
                    <mxGeometry relative="1" as="geometry">
                        <Array as="points">
                            <mxPoint x="360" y="610"/>
                            <mxPoint x="209" y="610"/>
                        </Array>
                    </mxGeometry>
                </mxCell>
                <mxCell id="145" value="" style="edgeStyle=orthogonalEdgeStyle;shape=link;html=1;entryX=0.522;entryY=0;entryDx=0;entryDy=0;entryPerimeter=0;" edge="1" parent="1" source="53" target="81">
                    <mxGeometry relative="1" as="geometry">
                        <Array as="points">
                            <mxPoint x="360" y="610"/>
                            <mxPoint x="514" y="610"/>
                        </Array>
                    </mxGeometry>
                </mxCell>
                <mxCell id="149" value="" style="edgeStyle=orthogonalEdgeStyle;shape=link;html=1;entryX=0.5;entryY=0;entryDx=0;entryDy=0;" edge="1" parent="1" source="53" target="85">
                    <mxGeometry relative="1" as="geometry">
                        <Array as="points">
                            <mxPoint x="360" y="610"/>
                            <mxPoint x="799" y="610"/>
                        </Array>
                    </mxGeometry>
                </mxCell>
                <mxCell id="151" value="" style="edgeStyle=orthogonalEdgeStyle;shape=link;html=1;" edge="1" parent="1" source="53" target="150">
                    <mxGeometry relative="1" as="geometry">
                        <Array as="points">
                            <mxPoint x="360" y="610"/>
                            <mxPoint x="1089" y="610"/>
                        </Array>
                    </mxGeometry>
                </mxCell>
                <mxCell id="153" value="" style="edgeStyle=orthogonalEdgeStyle;shape=link;html=1;" edge="1" parent="1" source="53" target="152">
                    <mxGeometry relative="1" as="geometry">
                        <Array as="points">
                            <mxPoint x="360" y="610"/>
                            <mxPoint x="1369" y="610"/>
                        </Array>
                    </mxGeometry>
                </mxCell>
                <mxCell id="155" value="" style="edgeStyle=orthogonalEdgeStyle;shape=link;html=1;" edge="1" parent="1" source="53" target="154">
                    <mxGeometry relative="1" as="geometry">
                        <Array as="points">
                            <mxPoint x="360" y="610"/>
                            <mxPoint x="1649" y="610"/>
                        </Array>
                    </mxGeometry>
                </mxCell>
                <mxCell id="157" value="" style="edgeStyle=orthogonalEdgeStyle;shape=link;html=1;" edge="1" parent="1" source="53" target="156">
                    <mxGeometry relative="1" as="geometry">
                        <Array as="points">
                            <mxPoint x="360" y="610"/>
                            <mxPoint x="1940" y="610"/>
                        </Array>
                    </mxGeometry>
                </mxCell>
                <mxCell id="159" value="" style="edgeStyle=orthogonalEdgeStyle;shape=link;html=1;" edge="1" parent="1" source="53" target="158">
                    <mxGeometry relative="1" as="geometry">
                        <Array as="points">
                            <mxPoint x="360" y="610"/>
                            <mxPoint x="2241" y="610"/>
                        </Array>
                    </mxGeometry>
                </mxCell>
                <mxCell id="53" value="MySqliteRequest" style="swimlane;fontStyle=1;align=center;verticalAlign=top;childLayout=stackLayout;horizontal=1;startSize=26;horizontalStack=0;resizeParent=1;resizeParentMax=0;resizeLast=0;collapsible=1;marginBottom=0;" vertex="1" parent="1">
                    <mxGeometry x="240" y="360" width="240" height="130" as="geometry"/>
                </mxCell>
                <mxCell id="54" value="- command_history: array" style="text;strokeColor=none;fillColor=none;align=left;verticalAlign=top;spacingLeft=4;spacingRight=4;overflow=hidden;rotatable=0;points=[[0,0.5],[1,0.5]];portConstraint=eastwest;" vertex="1" parent="53">
                    <mxGeometry y="26" width="240" height="34" as="geometry"/>
                </mxCell>
                <mxCell id="55" value="" style="line;strokeWidth=1;fillColor=none;align=left;verticalAlign=middle;spacingTop=-1;spacingLeft=3;spacingRight=3;rotatable=0;labelPosition=right;points=[];portConstraint=eastwest;" vertex="1" parent="53">
                    <mxGeometry y="60" width="240" height="10" as="geometry"/>
                </mxCell>
                <mxCell id="56" value="- initialize()&#10;- run(command)" style="text;strokeColor=none;fillColor=none;align=left;verticalAlign=top;spacingLeft=4;spacingRight=4;overflow=hidden;rotatable=0;points=[[0,0.5],[1,0.5]];portConstraint=eastwest;" vertex="1" parent="53">
                    <mxGeometry y="70" width="240" height="60" as="geometry"/>
                </mxCell>
                <mxCell id="126" value="" style="edgeStyle=none;html=1;shape=link;entryX=0.5;entryY=0;entryDx=0;entryDy=0;" edge="1" parent="1" source="57" target="90">
                    <mxGeometry relative="1" as="geometry"/>
                </mxCell>
                <mxCell id="57" value="MySqliteQueryCli" style="swimlane;fontStyle=1;align=center;verticalAlign=top;childLayout=stackLayout;horizontal=1;startSize=26;horizontalStack=0;resizeParent=1;resizeParentMax=0;resizeLast=0;collapsible=1;marginBottom=0;" vertex="1" parent="1">
                    <mxGeometry x="240" y="40" width="240" height="130" as="geometry"/>
                </mxCell>
                <mxCell id="58" value="- command_line_query: string" style="text;strokeColor=none;fillColor=none;align=left;verticalAlign=top;spacingLeft=4;spacingRight=4;overflow=hidden;rotatable=0;points=[[0,0.5],[1,0.5]];portConstraint=eastwest;" vertex="1" parent="57">
                    <mxGeometry y="26" width="240" height="34" as="geometry"/>
                </mxCell>
                <mxCell id="59" value="" style="line;strokeWidth=1;fillColor=none;align=left;verticalAlign=middle;spacingTop=-1;spacingLeft=3;spacingRight=3;rotatable=0;labelPosition=right;points=[];portConstraint=eastwest;" vertex="1" parent="57">
                    <mxGeometry y="60" width="240" height="10" as="geometry"/>
                </mxCell>
                <mxCell id="60" value="- initialize()&#10;- run()" style="text;strokeColor=none;fillColor=none;align=left;verticalAlign=top;spacingLeft=4;spacingRight=4;overflow=hidden;rotatable=0;points=[[0,0.5],[1,0.5]];portConstraint=eastwest;" vertex="1" parent="57">
                    <mxGeometry y="70" width="240" height="60" as="geometry"/>
                </mxCell>
                <mxCell id="69" value="FromCommand" style="swimlane;fontStyle=1;align=center;verticalAlign=top;childLayout=stackLayout;horizontal=1;startSize=26;horizontalStack=0;resizeParent=1;resizeParentMax=0;resizeLast=0;collapsible=1;marginBottom=0;" vertex="1" parent="1">
                    <mxGeometry x="-1031" y="760" width="240" height="180" as="geometry"/>
                </mxCell>
                <mxCell id="70" value="- current_table: string" style="text;strokeColor=none;fillColor=none;align=left;verticalAlign=top;spacingLeft=4;spacingRight=4;overflow=hidden;rotatable=0;points=[[0,0.5],[1,0.5]];portConstraint=eastwest;" vertex="1" parent="69">
                    <mxGeometry y="26" width="240" height="74" as="geometry"/>
                </mxCell>
                <mxCell id="71" value="" style="line;strokeWidth=1;fillColor=none;align=left;verticalAlign=middle;spacingTop=-1;spacingLeft=3;spacingRight=3;rotatable=0;labelPosition=right;points=[];portConstraint=eastwest;" vertex="1" parent="69">
                    <mxGeometry y="100" width="240" height="10" as="geometry"/>
                </mxCell>
                <mxCell id="72" value="- initialize(current_table: string)&#10;- execute()&#10;- undo()" style="text;strokeColor=none;fillColor=none;align=left;verticalAlign=top;spacingLeft=4;spacingRight=4;overflow=hidden;rotatable=0;points=[[0,0.5],[1,0.5]];portConstraint=eastwest;whiteSpace=wrap;" vertex="1" parent="69">
                    <mxGeometry y="110" width="240" height="70" as="geometry"/>
                </mxCell>
                <mxCell id="73" value="SelectCommand" style="swimlane;fontStyle=1;align=center;verticalAlign=top;childLayout=stackLayout;horizontal=1;startSize=26;horizontalStack=0;resizeParent=1;resizeParentMax=0;resizeLast=0;collapsible=1;marginBottom=0;" vertex="1" parent="1">
                    <mxGeometry x="-751" y="760" width="240" height="180" as="geometry"/>
                </mxCell>
                <mxCell id="74" value="- selected_columns:  string array" style="text;strokeColor=none;fillColor=none;align=left;verticalAlign=top;spacingLeft=4;spacingRight=4;overflow=hidden;rotatable=0;points=[[0,0.5],[1,0.5]];portConstraint=eastwest;" vertex="1" parent="73">
                    <mxGeometry y="26" width="240" height="74" as="geometry"/>
                </mxCell>
                <mxCell id="75" value="" style="line;strokeWidth=1;fillColor=none;align=left;verticalAlign=middle;spacingTop=-1;spacingLeft=3;spacingRight=3;rotatable=0;labelPosition=right;points=[];portConstraint=eastwest;" vertex="1" parent="73">
                    <mxGeometry y="100" width="240" height="10" as="geometry"/>
                </mxCell>
                <mxCell id="76" value="- initialize(selected_columns: string array)&#10;- execute()&#10;- undo()" style="text;strokeColor=none;fillColor=none;align=left;verticalAlign=top;spacingLeft=4;spacingRight=4;overflow=hidden;rotatable=0;points=[[0,0.5],[1,0.5]];portConstraint=eastwest;whiteSpace=wrap;" vertex="1" parent="73">
                    <mxGeometry y="110" width="240" height="70" as="geometry"/>
                </mxCell>
                <mxCell id="77" value="WhereCommand" style="swimlane;fontStyle=1;align=center;verticalAlign=top;childLayout=stackLayout;horizontal=1;startSize=26;horizontalStack=0;resizeParent=1;resizeParentMax=0;resizeLast=0;collapsible=1;marginBottom=0;" vertex="1" parent="1">
                    <mxGeometry x="-471" y="760" width="240" height="180" as="geometry"/>
                </mxCell>
                <mxCell id="78" value="- column_name: string&#10;- criteria: string" style="text;strokeColor=none;fillColor=none;align=left;verticalAlign=top;spacingLeft=4;spacingRight=4;overflow=hidden;rotatable=0;points=[[0,0.5],[1,0.5]];portConstraint=eastwest;" vertex="1" parent="77">
                    <mxGeometry y="26" width="240" height="74" as="geometry"/>
                </mxCell>
                <mxCell id="79" value="" style="line;strokeWidth=1;fillColor=none;align=left;verticalAlign=middle;spacingTop=-1;spacingLeft=3;spacingRight=3;rotatable=0;labelPosition=right;points=[];portConstraint=eastwest;" vertex="1" parent="77">
                    <mxGeometry y="100" width="240" height="10" as="geometry"/>
                </mxCell>
                <mxCell id="80" value="- initialize(column_name: string, criteria: string)&#10;- execute()&#10;- undo()" style="text;strokeColor=none;fillColor=none;align=left;verticalAlign=top;spacingLeft=4;spacingRight=4;overflow=hidden;rotatable=0;points=[[0,0.5],[1,0.5]];portConstraint=eastwest;whiteSpace=wrap;" vertex="1" parent="77">
                    <mxGeometry y="110" width="240" height="70" as="geometry"/>
                </mxCell>
                <mxCell id="81" value="JoinCommand" style="swimlane;fontStyle=1;align=center;verticalAlign=top;childLayout=stackLayout;horizontal=1;startSize=26;horizontalStack=0;resizeParent=1;resizeParentMax=0;resizeLast=0;collapsible=1;marginBottom=0;" vertex="1" parent="1">
                    <mxGeometry x="389" y="760" width="240" height="190" as="geometry"/>
                </mxCell>
                <mxCell id="82" value="- column_on_db_a: string&#10;- filename_db_b: string&#10;- column_on_db_b: string" style="text;strokeColor=none;fillColor=none;align=left;verticalAlign=top;spacingLeft=4;spacingRight=4;overflow=hidden;rotatable=0;points=[[0,0.5],[1,0.5]];portConstraint=eastwest;" vertex="1" parent="81">
                    <mxGeometry y="26" width="240" height="74" as="geometry"/>
                </mxCell>
                <mxCell id="83" value="" style="line;strokeWidth=1;fillColor=none;align=left;verticalAlign=middle;spacingTop=-1;spacingLeft=3;spacingRight=3;rotatable=0;labelPosition=right;points=[];portConstraint=eastwest;" vertex="1" parent="81">
                    <mxGeometry y="100" width="240" height="10" as="geometry"/>
                </mxCell>
                <mxCell id="84" value="- initialize(column_on_db_a: string, filename_db_b: string, column_on_db_b: string)&#10;- execute()&#10;- undo()" style="text;strokeColor=none;fillColor=none;align=left;verticalAlign=top;spacingLeft=4;spacingRight=4;overflow=hidden;rotatable=0;points=[[0,0.5],[1,0.5]];portConstraint=eastwest;whiteSpace=wrap;" vertex="1" parent="81">
                    <mxGeometry y="110" width="240" height="80" as="geometry"/>
                </mxCell>
                <mxCell id="85" value="OrderCommand" style="swimlane;fontStyle=1;align=center;verticalAlign=top;childLayout=stackLayout;horizontal=1;startSize=26;horizontalStack=0;resizeParent=1;resizeParentMax=0;resizeLast=0;collapsible=1;marginBottom=0;" vertex="1" parent="1">
                    <mxGeometry x="679" y="760" width="240" height="220" as="geometry"/>
                </mxCell>
                <mxCell id="86" value="- order: string&#10;- column_name: string" style="text;strokeColor=none;fillColor=none;align=left;verticalAlign=top;spacingLeft=4;spacingRight=4;overflow=hidden;rotatable=0;points=[[0,0.5],[1,0.5]];portConstraint=eastwest;" vertex="1" parent="85">
                    <mxGeometry y="26" width="240" height="74" as="geometry"/>
                </mxCell>
                <mxCell id="87" value="" style="line;strokeWidth=1;fillColor=none;align=left;verticalAlign=middle;spacingTop=-1;spacingLeft=3;spacingRight=3;rotatable=0;labelPosition=right;points=[];portConstraint=eastwest;" vertex="1" parent="85">
                    <mxGeometry y="100" width="240" height="10" as="geometry"/>
                </mxCell>
                <mxCell id="88" value="- initialize(order: string, column_name: string)&#10;- execute()&#10;- undo()" style="text;strokeColor=none;fillColor=none;align=left;verticalAlign=top;spacingLeft=4;spacingRight=4;overflow=hidden;rotatable=0;points=[[0,0.5],[1,0.5]];portConstraint=eastwest;whiteSpace=wrap;" vertex="1" parent="85">
                    <mxGeometry y="110" width="240" height="70" as="geometry"/>
                </mxCell>
                <mxCell id="127" value="" style="edgeStyle=none;shape=link;html=1;" edge="1" parent="1" source="90">
                    <mxGeometry relative="1" as="geometry">
                        <mxPoint x="360" y="360" as="targetPoint"/>
                    </mxGeometry>
                </mxCell>
                <mxCell id="90" value="Parse" style="swimlane;fontStyle=1;align=center;verticalAlign=top;childLayout=stackLayout;horizontal=1;startSize=26;horizontalStack=0;resizeParent=1;resizeParentMax=0;resizeLast=0;collapsible=1;marginBottom=0;" vertex="1" parent="1">
                    <mxGeometry x="240" y="200" width="240" height="130" as="geometry"/>
                </mxCell>
                <mxCell id="91" value="- command_line_query: array" style="text;strokeColor=none;fillColor=none;align=left;verticalAlign=top;spacingLeft=4;spacingRight=4;overflow=hidden;rotatable=0;points=[[0,0.5],[1,0.5]];portConstraint=eastwest;" vertex="1" parent="90">
                    <mxGeometry y="26" width="240" height="34" as="geometry"/>
                </mxCell>
                <mxCell id="92" value="" style="line;strokeWidth=1;fillColor=none;align=left;verticalAlign=middle;spacingTop=-1;spacingLeft=3;spacingRight=3;rotatable=0;labelPosition=right;points=[];portConstraint=eastwest;" vertex="1" parent="90">
                    <mxGeometry y="60" width="240" height="10" as="geometry"/>
                </mxCell>
                <mxCell id="93" value="- initialize()&#10;- run()" style="text;strokeColor=none;fillColor=none;align=left;verticalAlign=top;spacingLeft=4;spacingRight=4;overflow=hidden;rotatable=0;points=[[0,0.5],[1,0.5]];portConstraint=eastwest;" vertex="1" parent="90">
                    <mxGeometry y="70" width="240" height="60" as="geometry"/>
                </mxCell>
                <mxCell id="98" value="InsertCommand" style="swimlane;fontStyle=1;align=center;verticalAlign=top;childLayout=stackLayout;horizontal=1;startSize=26;horizontalStack=0;resizeParent=1;resizeParentMax=0;resizeLast=0;collapsible=1;marginBottom=0;" vertex="1" parent="1">
                    <mxGeometry x="-191" y="760" width="240" height="180" as="geometry"/>
                </mxCell>
                <mxCell id="99" value="- table_name: string" style="text;strokeColor=none;fillColor=none;align=left;verticalAlign=top;spacingLeft=4;spacingRight=4;overflow=hidden;rotatable=0;points=[[0,0.5],[1,0.5]];portConstraint=eastwest;" vertex="1" parent="98">
                    <mxGeometry y="26" width="240" height="74" as="geometry"/>
                </mxCell>
                <mxCell id="100" value="" style="line;strokeWidth=1;fillColor=none;align=left;verticalAlign=middle;spacingTop=-1;spacingLeft=3;spacingRight=3;rotatable=0;labelPosition=right;points=[];portConstraint=eastwest;" vertex="1" parent="98">
                    <mxGeometry y="100" width="240" height="10" as="geometry"/>
                </mxCell>
                <mxCell id="101" value="- initialize(table_name: string)&#10;- execute()&#10;- undo()" style="text;strokeColor=none;fillColor=none;align=left;verticalAlign=top;spacingLeft=4;spacingRight=4;overflow=hidden;rotatable=0;points=[[0,0.5],[1,0.5]];portConstraint=eastwest;" vertex="1" parent="98">
                    <mxGeometry y="110" width="240" height="70" as="geometry"/>
                </mxCell>
                <mxCell id="102" value="ValuesCommand" style="swimlane;fontStyle=1;align=center;verticalAlign=top;childLayout=stackLayout;horizontal=1;startSize=26;horizontalStack=0;resizeParent=1;resizeParentMax=0;resizeLast=0;collapsible=1;marginBottom=0;" vertex="1" parent="1">
                    <mxGeometry x="89" y="760" width="240" height="180" as="geometry"/>
                </mxCell>
                <mxCell id="103" value="- data: { key: string =&gt; value: string }" style="text;strokeColor=none;fillColor=none;align=left;verticalAlign=top;spacingLeft=4;spacingRight=4;overflow=hidden;rotatable=0;points=[[0,0.5],[1,0.5]];portConstraint=eastwest;" vertex="1" parent="102">
                    <mxGeometry y="26" width="240" height="74" as="geometry"/>
                </mxCell>
                <mxCell id="104" value="" style="line;strokeWidth=1;fillColor=none;align=left;verticalAlign=middle;spacingTop=-1;spacingLeft=3;spacingRight=3;rotatable=0;labelPosition=right;points=[];portConstraint=eastwest;" vertex="1" parent="102">
                    <mxGeometry y="100" width="240" height="10" as="geometry"/>
                </mxCell>
                <mxCell id="105" value="- initialize(data: { key: string =&gt; value: string } )&#10;- execute()&#10;- undo()" style="text;strokeColor=none;fillColor=none;align=left;verticalAlign=top;spacingLeft=4;spacingRight=4;overflow=hidden;rotatable=0;points=[[0,0.5],[1,0.5]];portConstraint=eastwest;whiteSpace=wrap;" vertex="1" parent="102">
                    <mxGeometry y="110" width="240" height="70" as="geometry"/>
                </mxCell>
                <mxCell id="106" value="UpdateCommand" style="swimlane;fontStyle=1;align=center;verticalAlign=top;childLayout=stackLayout;horizontal=1;startSize=26;horizontalStack=0;resizeParent=1;resizeParentMax=0;resizeLast=0;collapsible=1;marginBottom=0;" vertex="1" parent="1">
                    <mxGeometry x="969" y="760" width="240" height="180" as="geometry"/>
                </mxCell>
                <mxCell id="107" value="- table_name: string" style="text;strokeColor=none;fillColor=none;align=left;verticalAlign=top;spacingLeft=4;spacingRight=4;overflow=hidden;rotatable=0;points=[[0,0.5],[1,0.5]];portConstraint=eastwest;" vertex="1" parent="106">
                    <mxGeometry y="26" width="240" height="74" as="geometry"/>
                </mxCell>
                <mxCell id="108" value="" style="line;strokeWidth=1;fillColor=none;align=left;verticalAlign=middle;spacingTop=-1;spacingLeft=3;spacingRight=3;rotatable=0;labelPosition=right;points=[];portConstraint=eastwest;" vertex="1" parent="106">
                    <mxGeometry y="100" width="240" height="10" as="geometry"/>
                </mxCell>
                <mxCell id="109" value="- initialize(table_name: string)&#10;- execute()&#10;- undo()" style="text;strokeColor=none;fillColor=none;align=left;verticalAlign=top;spacingLeft=4;spacingRight=4;overflow=hidden;rotatable=0;points=[[0,0.5],[1,0.5]];portConstraint=eastwest;" vertex="1" parent="106">
                    <mxGeometry y="110" width="240" height="70" as="geometry"/>
                </mxCell>
                <mxCell id="110" value="SetCommand" style="swimlane;fontStyle=1;align=center;verticalAlign=top;childLayout=stackLayout;horizontal=1;startSize=26;horizontalStack=0;resizeParent=1;resizeParentMax=0;resizeLast=0;collapsible=1;marginBottom=0;" vertex="1" parent="1">
                    <mxGeometry x="1249" y="760" width="240" height="180" as="geometry"/>
                </mxCell>
                <mxCell id="111" value="- data: { key: string =&gt; value: string }" style="text;strokeColor=none;fillColor=none;align=left;verticalAlign=top;spacingLeft=4;spacingRight=4;overflow=hidden;rotatable=0;points=[[0,0.5],[1,0.5]];portConstraint=eastwest;" vertex="1" parent="110">
                    <mxGeometry y="26" width="240" height="74" as="geometry"/>
                </mxCell>
                <mxCell id="112" value="" style="line;strokeWidth=1;fillColor=none;align=left;verticalAlign=middle;spacingTop=-1;spacingLeft=3;spacingRight=3;rotatable=0;labelPosition=right;points=[];portConstraint=eastwest;" vertex="1" parent="110">
                    <mxGeometry y="100" width="240" height="10" as="geometry"/>
                </mxCell>
                <mxCell id="113" value="- initialize(- data: { key: string =&gt; value: string } )&#10;- execute()&#10;- undo()" style="text;strokeColor=none;fillColor=none;align=left;verticalAlign=top;spacingLeft=4;spacingRight=4;overflow=hidden;rotatable=0;points=[[0,0.5],[1,0.5]];portConstraint=eastwest;whiteSpace=wrap;" vertex="1" parent="110">
                    <mxGeometry y="110" width="240" height="70" as="geometry"/>
                </mxCell>
                <mxCell id="114" value="DeleteCommand" style="swimlane;fontStyle=1;align=center;verticalAlign=top;childLayout=stackLayout;horizontal=1;startSize=26;horizontalStack=0;resizeParent=1;resizeParentMax=0;resizeLast=0;collapsible=1;marginBottom=0;" vertex="1" parent="1">
                    <mxGeometry x="1529" y="760" width="240" height="180" as="geometry"/>
                </mxCell>
                <mxCell id="115" value="- selected_columns: array " style="text;strokeColor=none;fillColor=none;align=left;verticalAlign=top;spacingLeft=4;spacingRight=4;overflow=hidden;rotatable=0;points=[[0,0.5],[1,0.5]];portConstraint=eastwest;" vertex="1" parent="114">
                    <mxGeometry y="26" width="240" height="74" as="geometry"/>
                </mxCell>
                <mxCell id="116" value="" style="line;strokeWidth=1;fillColor=none;align=left;verticalAlign=middle;spacingTop=-1;spacingLeft=3;spacingRight=3;rotatable=0;labelPosition=right;points=[];portConstraint=eastwest;" vertex="1" parent="114">
                    <mxGeometry y="100" width="240" height="10" as="geometry"/>
                </mxCell>
                <mxCell id="117" value="- initialize(selected_columns: array)&#10;- execute()&#10;- undo()" style="text;strokeColor=none;fillColor=none;align=left;verticalAlign=top;spacingLeft=4;spacingRight=4;overflow=hidden;rotatable=0;points=[[0,0.5],[1,0.5]];portConstraint=eastwest;" vertex="1" parent="114">
                    <mxGeometry y="110" width="240" height="70" as="geometry"/>
                </mxCell>
                <mxCell id="118" value="ValidateCommand" style="swimlane;fontStyle=1;align=center;verticalAlign=top;childLayout=stackLayout;horizontal=1;startSize=26;horizontalStack=0;resizeParent=1;resizeParentMax=0;resizeLast=0;collapsible=1;marginBottom=0;" vertex="1" parent="1">
                    <mxGeometry x="1820" y="760" width="240" height="180" as="geometry"/>
                </mxCell>
                <mxCell id="119" value="- data: { key: string =&gt; value: string }" style="text;strokeColor=none;fillColor=none;align=left;verticalAlign=top;spacingLeft=4;spacingRight=4;overflow=hidden;rotatable=0;points=[[0,0.5],[1,0.5]];portConstraint=eastwest;" vertex="1" parent="118">
                    <mxGeometry y="26" width="240" height="74" as="geometry"/>
                </mxCell>
                <mxCell id="120" value="" style="line;strokeWidth=1;fillColor=none;align=left;verticalAlign=middle;spacingTop=-1;spacingLeft=3;spacingRight=3;rotatable=0;labelPosition=right;points=[];portConstraint=eastwest;" vertex="1" parent="118">
                    <mxGeometry y="100" width="240" height="10" as="geometry"/>
                </mxCell>
                <mxCell id="121" value="- initialize(- data: { key: string =&gt; value: string } )&#10;- execute()&#10;- undo()" style="text;strokeColor=none;fillColor=none;align=left;verticalAlign=top;spacingLeft=4;spacingRight=4;overflow=hidden;rotatable=0;points=[[0,0.5],[1,0.5]];portConstraint=eastwest;whiteSpace=wrap;" vertex="1" parent="118">
                    <mxGeometry y="110" width="240" height="70" as="geometry"/>
                </mxCell>
                <mxCell id="122" value="PrintCommand" style="swimlane;fontStyle=1;align=center;verticalAlign=top;childLayout=stackLayout;horizontal=1;startSize=26;horizontalStack=0;resizeParent=1;resizeParentMax=0;resizeLast=0;collapsible=1;marginBottom=0;" vertex="1" parent="1">
                    <mxGeometry x="2121" y="760" width="240" height="180" as="geometry"/>
                </mxCell>
                <mxCell id="123" value="- output_string: string" style="text;strokeColor=none;fillColor=none;align=left;verticalAlign=top;spacingLeft=4;spacingRight=4;overflow=hidden;rotatable=0;points=[[0,0.5],[1,0.5]];portConstraint=eastwest;" vertex="1" parent="122">
                    <mxGeometry y="26" width="240" height="74" as="geometry"/>
                </mxCell>
                <mxCell id="124" value="" style="line;strokeWidth=1;fillColor=none;align=left;verticalAlign=middle;spacingTop=-1;spacingLeft=3;spacingRight=3;rotatable=0;labelPosition=right;points=[];portConstraint=eastwest;" vertex="1" parent="122">
                    <mxGeometry y="100" width="240" height="10" as="geometry"/>
                </mxCell>
                <mxCell id="125" value="- initialize(- output_string: string)&#10;- execute()&#10;- undo()" style="text;strokeColor=none;fillColor=none;align=left;verticalAlign=top;spacingLeft=4;spacingRight=4;overflow=hidden;rotatable=0;points=[[0,0.5],[1,0.5]];portConstraint=eastwest;" vertex="1" parent="122">
                    <mxGeometry y="110" width="240" height="70" as="geometry"/>
                </mxCell>
                <mxCell id="133" value="" style="shape=waypoint;sketch=0;size=6;pointerEvents=1;points=[];fillColor=default;resizable=0;rotatable=0;perimeter=centerPerimeter;snapToPoint=1;verticalAlign=top;fontStyle=1;startSize=26;" vertex="1" parent="1">
                    <mxGeometry x="-651" y="750" width="40" height="40" as="geometry"/>
                </mxCell>
                <mxCell id="136" value="" style="shape=waypoint;sketch=0;size=6;pointerEvents=1;points=[];fillColor=default;resizable=0;rotatable=0;perimeter=centerPerimeter;snapToPoint=1;verticalAlign=top;fontStyle=1;startSize=26;" vertex="1" parent="1">
                    <mxGeometry x="-371" y="740" width="40" height="40" as="geometry"/>
                </mxCell>
                <mxCell id="140" value="" style="shape=waypoint;sketch=0;size=6;pointerEvents=1;points=[];fillColor=default;resizable=0;rotatable=0;perimeter=centerPerimeter;snapToPoint=1;verticalAlign=top;fontStyle=1;startSize=26;" vertex="1" parent="1">
                    <mxGeometry x="-91" y="740" width="40" height="40" as="geometry"/>
                </mxCell>
                <mxCell id="148" value="" style="shape=waypoint;sketch=0;size=6;pointerEvents=1;points=[];fillColor=default;resizable=0;rotatable=0;perimeter=centerPerimeter;snapToPoint=1;verticalAlign=top;fontStyle=1;startSize=26;" vertex="1" parent="1">
                    <mxGeometry x="760" y="740" width="40" height="40" as="geometry"/>
                </mxCell>
                <mxCell id="150" value="" style="shape=waypoint;sketch=0;size=6;pointerEvents=1;points=[];fillColor=default;resizable=0;rotatable=0;perimeter=centerPerimeter;snapToPoint=1;verticalAlign=top;fontStyle=1;startSize=26;" vertex="1" parent="1">
                    <mxGeometry x="1069" y="740" width="40" height="40" as="geometry"/>
                </mxCell>
                <mxCell id="152" value="" style="shape=waypoint;sketch=0;size=6;pointerEvents=1;points=[];fillColor=default;resizable=0;rotatable=0;perimeter=centerPerimeter;snapToPoint=1;verticalAlign=top;fontStyle=1;startSize=26;" vertex="1" parent="1">
                    <mxGeometry x="1349" y="740" width="40" height="40" as="geometry"/>
                </mxCell>
                <mxCell id="154" value="" style="shape=waypoint;sketch=0;size=6;pointerEvents=1;points=[];fillColor=default;resizable=0;rotatable=0;perimeter=centerPerimeter;snapToPoint=1;verticalAlign=top;fontStyle=1;startSize=26;" vertex="1" parent="1">
                    <mxGeometry x="1629" y="740" width="40" height="40" as="geometry"/>
                </mxCell>
                <mxCell id="156" value="" style="shape=waypoint;sketch=0;size=6;pointerEvents=1;points=[];fillColor=default;resizable=0;rotatable=0;perimeter=centerPerimeter;snapToPoint=1;verticalAlign=top;fontStyle=1;startSize=26;" vertex="1" parent="1">
                    <mxGeometry x="1920" y="740" width="40" height="40" as="geometry"/>
                </mxCell>
                <mxCell id="158" value="" style="shape=waypoint;sketch=0;size=6;pointerEvents=1;points=[];fillColor=default;resizable=0;rotatable=0;perimeter=centerPerimeter;snapToPoint=1;verticalAlign=top;fontStyle=1;startSize=26;" vertex="1" parent="1">
                    <mxGeometry x="2221" y="740" width="40" height="40" as="geometry"/>
                </mxCell>
            </root>
        </mxGraphModel>
    </diagram>
</mxfile>
